<svg xmlns="http://www.w3.org/2000/svg" width="256" height="256" viewBox="0 0 256 256"><path d="M71 110H74V108H77V106H80V105H82V103H85V101H88V99V98H91V97H93V97H96V96H99V95H101V94H104H107V94H110V95H112V95H115V95H118V95H121V96H123V96H126V96V95H129V95H131V94H134V93H137V92H140V92H142V91H145H148V92H150V93H153V94H156V95H159V96H161V97H164V98V100H167V102H169V105H172V107H174V109H177H180V110H183V111V114H185V116H186V119H188V122H189V125H191V127H192V130H194H195V133H196V136H197V139H197V141H198V144H199V147H200V150V153H200V156H199V159H199V162H198V165H198V168H197H198V171H199V174H200V177H201V180V183H199V186H196V189H194V192H192V195H189V198H187H184V199H182V201H179V202H177V204H174V205V207H171V209H169V211H166V212H163V214H161V216H158H155V216H153V215H150V215H147V214H144V214H142V213H139V213V214H136V215H133V216H131V217H128V218H125H122V218H120V217H117V217H114V217H111V216H109V216H106V215H103V215V213H100V211H97V210H94V208H91V206H88H85V206H83V205H80V205H78V204H75V204V201H73V198H71V196H69V193H67V190H65H64V187H63V185H63V182H62V179H61V177H60V174V171H59V169H57V166H56V163H54H55V160H55V157H56V154H57V151H57V148H58V145V143H58V140H57V138H57V135H56H58V132H60V129H61V127H63V124H65V121V118H67V116H68V113H70V110H71Z" fill="#fff"/></svg>
